<svg preserveAspectRatio="none" overflow="visible" style="display: block;" width="35" height="35" viewBox="0 0 35 35" fill="none" xmlns="http://www.w3.org/2000/svg">
<g id="Group 5">
<circle id="Ellipse 1" cx="17.5" cy="17.5" r="17.5" fill="white" fill-opacity="0.2"/>
<g id="at-icons:cross">
<path id="Vector" d="M22.8296 11.5796C23.0418 11.3747 23.326 11.2613 23.621 11.2639C23.9159 11.2664 24.1981 11.3847 24.4067 11.5933C24.6153 11.8019 24.7336 12.0841 24.7361 12.379C24.7387 12.674 24.6253 12.9582 24.4204 13.1704L19.5907 18L24.4204 22.8296C24.5278 22.9334 24.6135 23.0575 24.6725 23.1948C24.7314 23.332 24.7625 23.4797 24.7638 23.629C24.7651 23.7784 24.7366 23.9266 24.68 24.0648C24.6235 24.2031 24.5399 24.3287 24.4343 24.4343C24.3287 24.5399 24.2031 24.6235 24.0648 24.68C23.9266 24.7366 23.7784 24.7651 23.629 24.7638C23.4797 24.7625 23.332 24.7314 23.1948 24.6725C23.0575 24.6135 22.9334 24.5278 22.8296 24.4204L18 19.5907L13.1704 24.4204C13.0666 24.5278 12.9425 24.6135 12.8052 24.6725C12.668 24.7314 12.5203 24.7625 12.371 24.7638C12.2216 24.7651 12.0734 24.7366 11.9352 24.68C11.7969 24.6235 11.6713 24.5399 11.5657 24.4343C11.4601 24.3287 11.3765 24.2031 11.32 24.0648C11.2634 23.9266 11.2349 23.7784 11.2362 23.629C11.2375 23.4797 11.2686 23.332 11.3275 23.1948C11.3865 23.0575 11.4722 22.9334 11.5796 22.8296L16.4092 18L11.5796 13.1704C11.4722 13.0666 11.3865 12.9425 11.3275 12.8052C11.2686 12.668 11.2375 12.5203 11.2362 12.371C11.2349 12.2216 11.2634 12.0734 11.32 11.9352C11.3765 11.7969 11.4601 11.6713 11.5657 11.5657C11.6713 11.4601 11.7969 11.3765 11.9352 11.32C12.0734 11.2634 12.2216 11.2349 12.371 11.2362C12.5203 11.2375 12.668 11.2686 12.8052 11.3275C12.9425 11.3865 13.0666 11.4722 13.1704 11.5796L18 16.4092L22.8296 11.5796Z" fill="white"/>
</g>
</g>
</svg>
