<svg width="24" height="24" viewBox="0 0 24 24" fill="none" xmlns="http://www.w3.org/2000/svg">
<path d="M10.6 6.1C11.05 6.03 11.52 6 12 6C18.4 6 22 12 22 12C22 12 21.05 13.58 19.4 15.2" stroke="white" stroke-width="1.5" stroke-linecap="round" stroke-linejoin="round"/>
<path d="M16.2 17.1C14.96 17.7 13.55 18 12 18C5.6 18 2 12 2 12C2 12 3.28 9.87 5.5 8.15" stroke="white" stroke-width="1.5" stroke-linecap="round" stroke-linejoin="round"/>
<path d="M9.9 9.9C9.35 10.45 9 11.19 9 12C9 13.66 10.34 15 12 15C12.81 15 13.55 14.65 14.1 14.1" stroke="white" stroke-width="1.5" stroke-linecap="round" stroke-linejoin="round"/>
<path d="M3.5 3.5L20.5 20.5" stroke="white" stroke-width="1.5" stroke-linecap="round" stroke-linejoin="round"/>
</svg>
