<svg preserveAspectRatio="none" overflow="visible" style="display: block;" width="28.1649" height="28.1649" viewBox="0 0 28.1649 28.1649" fill="none" xmlns="http://www.w3.org/2000/svg">
<g id="flat-color-icons:google">
<path id="Vector" d="M25.5896 11.7841H24.6443V11.7354H14.0825V16.4295H20.7147C19.7471 19.1621 17.1472 21.1237 14.0825 21.1237C10.1939 21.1237 7.04123 17.971 7.04123 14.0825C7.04123 10.1939 10.1939 7.04123 14.0825 7.04123C15.8774 7.04123 17.5104 7.71836 18.7537 8.82442L22.0731 5.50507C19.9771 3.55171 17.1736 2.34708 14.0825 2.34708C7.6016 2.34708 2.34708 7.6016 2.34708 14.0825C2.34708 20.5633 7.6016 25.8179 14.0825 25.8179C20.5633 25.8179 25.8179 20.5633 25.8179 14.0825C25.8179 13.2956 25.7369 12.5275 25.5896 11.7841Z" fill="#FFC107"/>
<path id="Vector_2" d="M3.70017 8.62023L7.55583 11.4479C8.5991 8.86491 11.1257 7.04123 14.0825 7.04123C15.8774 7.04123 17.5104 7.71836 18.7537 8.82442L22.0731 5.50507C19.9771 3.55171 17.1736 2.34708 14.0825 2.34708C9.5749 2.34708 5.66584 4.8919 3.70017 8.62023Z" fill="#FF3D00"/>
<path id="Vector_3" d="M14.0825 25.8179C17.1137 25.8179 19.868 24.6578 21.9505 22.7713L18.3184 19.6978C17.1007 20.6244 15.6125 21.1253 14.0825 21.1237C11.0301 21.1237 8.43833 19.1774 7.46195 16.4612L3.63504 19.4097C5.57724 23.2102 9.52151 25.8179 14.0825 25.8179Z" fill="#4CAF50"/>
<path id="Vector_4" d="M25.5896 11.7841H24.6443V11.7354H14.0825V16.4295H20.7147C20.2519 17.7301 19.4182 18.8665 18.3166 19.6984L18.3184 19.6973L21.9505 22.7708C21.6934 23.0043 25.8179 19.9502 25.8179 14.0825C25.8179 13.2956 25.7369 12.5275 25.5896 11.7841Z" fill="#1976D2"/>
</g>
</svg>
